<svg enable-background="new 0 0 496 496" viewBox="0 0 496 496" xmlns="http://www.w3.org/2000/svg"><path d="m360 314.8c0 8.8-7.2 15.2-15.2 15.2h-40.8c-8.8 0-15.2-7.2-15.2-15.2v-241.6c-.8-8 6.4-15.2 14.4-15.2h40.8c8.8 0 16 7.2 16 15.2z" fill="#245151"/><path d="m296 315.6c0 8.8-8.8 14.4-16.8 14.4h-204c-8.8 0-19.2-5.6-19.2-14.4v-204c0-8.8 10.4-13.6 19.2-13.6h204c8.8 0 16.8 4.8 16.8 13.6z" fill="#356466"/><path d="m256 307.6c0 8.8-8.8 14.4-16.8 14.4h-93.6c-8.8 0-17.6-5.6-17.6-14.4v-246.4c0-8.8 9.6-19.2 17.6-19.2h92.8c8.8 0 17.6 10.4 17.6 19.2z" fill="#4a7a7f"/><g fill="#0fa862"><path d="m140.8 342.8c-8 0-15.2-5.6-16.8-13.6l-38.4-180c-1.6-9.6 4-18.4 12.8-20 9.6-1.6 18.4 4 20 12.8l39.2 180c1.6 9.6-4 18.4-12.8 20-1.6.8-2.4.8-4 .8z"/><path d="m273.6 342.8c-.8 0-2.4 0-4 0-9.6-1.6-15.2-11.2-12.8-20l39.2-180.8c1.6-9.6 11.2-15.2 20-12.8 9.6 1.6 15.2 11.2 12.8 20l-38.4 180c-1.6 8-8.8 13.6-16.8 13.6z"/><path d="m208 338.8c-9.6 0-16-8-16-16.8v-180c0-9.6 6.4-16.8 16-16.8s16 8 16 16.8v180c0 9.6-6.4 16.8-16 16.8z"/></g><path d="m414.4 147.6c1.6-4.8.8-12.8-2.4-16.8s-8-8.8-13.6-8.8h-381.6c-5.6 0-10.4 4-13.6 8.8-3.2 4-4 11.2-2.4 16l39.2 126.4 2.4 7.2 16.8 54.4c2.4 7.2 8.8 12 16 12h264c7.2 0 14.4-4.8 16-11.2l16.8-54.4 2.4-7.2zm-353.6 78.4h293.6l-9.6 32h-274.4zm313.6-64-9.6 24h-315.2l-9.6-24zm-286.4 152-7.2-24h253.6l-7.2 24z" fill="#1ad85a"/><path d="m397.6 130h-380.8c-5.6 0-10.4 4-13.6 8.8-1.6 1.6-2.4 4.8-2.4 7.2v1.6l39.2 125.6 2.4 7.2 16.8 54.4c2.4 7.2 8.8 12 16 12h264c7.2 0 14.4-4.8 16-11.2l16.8-54.4 2.4-7.2 39.2-125.6v-.8c-.8-2.4-1.6-5.6-2.4-8-2.4-5.6-8-9.6-13.6-9.6zm-63.2 168-7.2 24h-239.2l-7.2-24h2.4l-2.4-8h253.6l-2.4 8zm20-64-9.6 32h-274.4l-9.6-32h2.4l-2.4-8h293.6l-2.4 8zm20-64-9.6 24h-315.2l-9.6-24h2.4l-2.4-8h334.4l-2.4 8z" fill="#19bf55"/><path d="m348.8 410h-282.4c-9.6 0-16.8-6.4-16.8-16s8-16 16.8-16h282.4c9.6 0 16.8 6.4 16.8 16s-7.2 16-16.8 16z" fill="#72b1b7"/><path d="m80.8 410h112c0-16-16-32-33.6-32h-60c-12 0-18.4 16-18.4 32z" fill="#5d9ba5"/><path d="m166.4 408.4c0 24-19.2 45.6-43.2 45.6s-43.2-22.4-43.2-45.6c0-24 19.2-43.2 43.2-43.2s43.2 19.2 43.2 43.2z" fill="#c43700"/><path d="m166.4 408.4c0 24-19.2 43.2-43.2 43.2s-43.2-19.2-43.2-43.2 19.2-46.4 43.2-46.4 43.2 22.4 43.2 46.4z" fill="#ff9d00"/><circle cx="123.2" cy="408.4" fill="#ff5b00" r="43.2"/><path d="m92.8 378c16.8-16.8 44-16.8 60.8 0s16.8 44 0 60.8" fill="#d40"/><path d="m123.2 434c-14.4 0-25.6-11.2-25.6-25.6s11.2-25.6 25.6-25.6 25.6 11.2 25.6 25.6-11.2 25.6-25.6 25.6z" fill="#ebf0f2"/><path d="m141.6 390.8c9.6 9.6 9.6 26.4 0 36s-26.4 9.6-36 0" fill="#cadfe5"/><path d="m238.4 410h112c0-16-16-32-33.6-32h-60.8c-10.4 0-17.6 16-17.6 32z" fill="#5d9ba5"/><path d="m324 408.4c0 24-19.2 45.6-43.2 45.6s-43.2-22.4-43.2-45.6c0-24 19.2-43.2 43.2-43.2s43.2 19.2 43.2 43.2z" fill="#c43700"/><path d="m324 408.4c0 24-19.2 43.2-43.2 43.2s-43.2-19.2-43.2-43.2 19.2-46.4 43.2-46.4 43.2 22.4 43.2 46.4z" fill="#ff9d00"/><circle cx="281.6" cy="408.4" fill="#ff5b00" r="43.2"/><path d="m251.2 378c16.8-16.8 44-16.8 60.8 0s16.8 44 0 60.8" fill="#d40"/><path d="m281.6 434c-14.4 0-25.6-11.2-25.6-25.6s11.2-25.6 25.6-25.6 25.6 11.2 25.6 25.6c-.8 14.4-12 25.6-25.6 25.6z" fill="#ebf0f2"/><path d="m299.2 390.8c9.6 9.6 9.6 26.4 0 36s-26.4 9.6-36 0" fill="#cadfe5"/><path d="m496 82c0 8.8-7.2 16-16 16h-72c-8.8 0-16-7.2-16-16 0-8.8 7.2-16 16-16h72c8.8 0 16 7.2 16 16z" fill="#1b5a89"/><path d="m407.2 66c-7.2 0-13.6 6.4-15.2 12.8 2.4 7.2 7.2 11.2 15.2 11.2h72c7.2 0 14.4-4.8 16.8-12-4-8.8-9.6-12-16.8-12z" fill="#18456d"/></svg>