<svg height="1024" viewBox="0 0 1024 1024" width="1024" xmlns="http://www.w3.org/2000/svg"><circle cx="512" cy="512" fill="#e60023" r="512"/><path d="m512.21 255.58c-141.5 0-256.21 114.71-256.21 256.21 0 108.6 67.48 201.38 162.79 238.71-2.32-20.24-4.22-51.45.84-73.59 4.64-20 29.94-127.37 29.94-127.37s-7.59-15.39-7.59-38c0-35.64 20.67-62.21 46.39-62.21 21.93 0 32.47 16.45 32.47 36.06 0 21.93-13.92 54.83-21.3 85.4-6.12 25.52 12.86 46.39 38 46.39 45.55 0 80.55-48.08 80.55-117.25 0-61.36-44.07-104.17-107.12-104.17-73 0-115.77 54.62-115.77 111.13 0 21.93 8.43 45.55 19 58.41a7.63 7.63 0 0 1 1.69 7.38c-1.9 8-6.33 25.52-7.17 29.1-1.05 4.64-3.8 5.69-8.65 3.37-32.05-15-52.09-61.57-52.09-99.32 0-80.76 58.62-155 169.33-155 88.78 0 157.94 63.26 157.94 148 0 88.36-55.67 159.42-132.85 159.42-25.94 0-50.4-13.5-58.62-29.52l-16 60.94c-5.78 22.45-21.36 50.33-31.91 67.33a257.34 257.34 0 0 0 75.91 11.39c141.5.03 256.22-114.68 256.22-256.18.42-141.92-114.29-256.63-255.79-256.63z" fill="#fff"/></svg>